<svg width="395" height="295" viewBox="0 0 395 295" fill="none" xmlns="http://www.w3.org/2000/svg">
<g clip-path="url(#clip0)">
<path d="M101.413 196.238C98.1868 190.707 91.164 184.7 91.164 178.287V120.289C91.164 114.258 98.1155 107.94 101.224 102.767C103.833 98.405 105.281 93.256 105.091 87.7731C104.64 73.6846 93.3705 62.123 79.3487 61.384C63.6662 60.5497 50.6646 73.1125 50.6646 88.679C50.6646 93.8043 52.0644 98.6196 54.5318 102.72C57.8771 108.322 65.3031 114.806 65.3031 121.338V177.596C65.3031 184.033 57.8772 190.397 54.5793 195.904C52.1119 200.004 50.6883 204.796 50.6883 209.945C50.6408 224.725 62.5273 237.001 77.2371 237.359C92.5638 237.717 105.115 225.344 105.115 210.016C105.115 204.986 103.786 200.29 101.413 196.238ZM77.9014 227.442C68.5061 227.442 60.8902 219.79 60.8902 210.35C60.8902 200.91 68.5061 193.258 77.9014 193.258C87.2967 193.258 94.9127 200.91 94.9127 210.35C94.9127 219.79 87.2967 227.442 77.9014 227.442ZM77.9014 105.437C68.5061 105.437 60.8902 97.7852 60.8902 88.3452C60.8902 78.9052 68.5061 71.2531 77.9014 71.2531C87.2967 71.2531 94.9127 78.9052 94.9127 88.3452C94.9127 97.7852 87.2967 105.437 77.9014 105.437Z" fill="white" fill-opacity="0.03"/>
<path d="M185.401 64.6257C179.897 67.8677 173.918 74.9239 167.536 74.9239H109.812C103.809 74.9239 97.5223 67.9393 92.3738 64.8165C88.0321 62.1942 82.9073 60.7401 77.4504 60.9308C63.4286 61.3837 51.9218 72.707 51.1863 86.7954C50.3559 102.553 62.8355 115.616 78.352 115.616C83.453 115.616 88.2456 114.21 92.3263 111.73C97.9018 108.369 104.355 100.908 110.856 100.908H166.848C173.254 100.908 179.589 108.369 185.069 111.683C189.15 114.162 193.919 115.592 199.044 115.592C213.753 115.64 225.972 103.697 226.328 88.917C226.684 73.5174 214.37 60.9069 199.115 60.9069C194.109 60.8831 189.435 62.2419 185.401 64.6257ZM216.458 88.2258C216.458 97.6658 208.842 105.318 199.447 105.318C190.052 105.318 182.436 97.6658 182.436 88.2258C182.436 78.7858 190.052 71.1336 199.447 71.1336C208.842 71.1574 216.458 78.8096 216.458 88.2258ZM95.0311 88.2258C95.0311 97.6658 87.4152 105.318 78.0199 105.318C68.6246 105.318 61.0087 97.6658 61.0087 88.2258C61.0087 78.7858 68.6246 71.1336 78.0199 71.1336C87.4152 71.1574 95.0311 78.8096 95.0311 88.2258Z" fill="white" fill-opacity="0.03"/>
<path d="M148.841 52.3729C154.345 49.1309 160.324 42.0747 166.706 42.0747H224.43C230.433 42.0747 236.72 49.0594 241.868 52.1822C246.21 54.8044 251.335 56.2585 256.792 56.0678C270.813 55.6149 282.32 44.2917 283.056 30.2032C283.886 14.4461 271.406 1.38257 255.89 1.38257C250.789 1.38257 245.996 2.78904 241.916 5.26824C236.34 8.62945 229.887 16.0909 223.386 16.0909H167.394C160.988 16.0909 154.653 8.62949 149.173 5.31596C145.092 2.83677 140.323 1.40643 135.198 1.40643C120.489 1.35875 108.27 13.3018 107.938 28.0816C107.582 43.4812 119.895 56.0917 135.151 56.0917C140.133 56.0917 144.831 54.7329 148.841 52.3729ZM117.784 28.7491C117.784 19.3091 125.4 11.657 134.795 11.657C144.19 11.657 151.806 19.3091 151.806 28.7491C151.806 38.1891 144.19 45.8412 134.795 45.8412C125.4 45.8412 117.784 38.1891 117.784 28.7491ZM239.235 28.7491C239.235 19.3091 246.851 11.657 256.246 11.657C265.641 11.657 273.257 19.3091 273.257 28.7491C273.257 38.1891 265.641 45.8412 256.246 45.8412C246.851 45.8412 239.235 38.1891 239.235 28.7491Z" fill="white" fill-opacity="0.03"/>
<path d="M279.853 136.761C276.626 131.23 269.603 125.223 269.603 118.811V60.8117C269.603 54.7806 276.555 48.4634 279.663 43.2905C282.273 38.9281 283.72 33.779 283.53 28.2961C283.08 14.2077 271.81 2.64602 257.788 1.90703C242.106 1.07269 229.104 13.6117 229.104 29.202C229.104 34.3273 230.504 39.1427 232.971 43.2429C236.317 48.8449 243.743 55.3289 243.743 61.8606V118.119C243.743 124.556 236.316 130.92 233.019 136.427C230.551 140.527 229.128 145.319 229.128 150.468C229.08 165.248 240.967 177.524 255.676 177.882C271.003 178.24 283.554 165.867 283.554 150.539C283.554 145.509 282.202 140.813 279.853 136.761ZM256.341 167.965C246.946 167.965 239.33 160.313 239.33 150.873C239.33 141.433 246.946 133.781 256.341 133.781C265.736 133.781 273.352 141.433 273.352 150.873C273.352 160.313 265.736 167.965 256.341 167.965ZM256.341 45.9365C246.946 45.9365 239.33 38.2845 239.33 28.8445C239.33 19.4045 246.946 11.7523 256.341 11.7523C265.736 11.7523 273.352 19.4045 273.352 28.8445C273.352 38.3083 265.736 45.9365 256.341 45.9365Z" fill="white" fill-opacity="0.03"/>
<path d="M293.661 102.028C296.888 107.559 303.91 113.566 303.91 119.978V177.977C303.91 184.008 296.959 190.326 293.851 195.499C291.241 199.861 289.794 205.01 289.984 210.493C290.434 224.581 301.704 236.143 315.726 236.882C331.408 237.716 344.41 225.153 344.41 209.587C344.41 204.462 343.01 199.646 340.543 195.546C337.197 189.944 329.771 183.46 329.771 176.928V120.67C329.771 114.233 337.197 107.869 340.495 102.362C342.963 98.2618 344.386 93.4702 344.386 88.3211C344.434 73.5413 332.547 61.2646 317.837 60.907C302.511 60.5494 289.96 72.9215 289.96 88.2496C289.96 93.2795 291.312 97.9995 293.661 102.028ZM317.173 70.8237C326.568 70.8237 334.184 78.4759 334.184 87.9159C334.184 97.3559 326.568 105.008 317.173 105.008C307.778 105.008 300.162 97.3559 300.162 87.9159C300.162 78.4759 307.778 70.8237 317.173 70.8237ZM317.173 192.852C326.568 192.852 334.184 200.505 334.184 209.945C334.184 219.385 326.568 227.037 317.173 227.037C307.778 227.037 300.162 219.385 300.162 209.945C300.162 200.505 307.778 192.852 317.173 192.852Z" fill="white" fill-opacity="0.03"/>
<path d="M209.673 233.664C215.177 230.422 221.156 223.366 227.538 223.366H285.262C291.265 223.366 297.552 230.35 302.7 233.473C307.042 236.095 312.167 237.55 317.624 237.359C331.646 236.906 343.152 225.583 343.888 211.494C344.718 195.737 332.239 182.674 316.722 182.674C311.621 182.674 306.829 184.08 302.748 186.559C297.172 189.92 290.719 197.382 284.218 197.382H228.226C221.82 197.382 215.485 189.92 210.005 186.607C205.924 184.128 201.155 182.697 196.031 182.697C181.321 182.65 169.102 194.593 168.746 209.373C168.39 224.772 180.704 237.383 195.959 237.383C200.965 237.383 205.639 236.024 209.673 233.664ZM178.616 210.04C178.616 200.6 186.232 192.948 195.627 192.948C205.022 192.948 212.638 200.6 212.638 210.04C212.638 219.48 205.022 227.132 195.627 227.132C186.232 227.132 178.616 219.48 178.616 210.04ZM300.043 210.04C300.043 200.6 307.659 192.948 317.054 192.948C326.45 192.948 334.066 200.6 334.066 210.04C334.066 219.48 326.45 227.132 317.054 227.132C307.659 227.132 300.043 219.48 300.043 210.04Z" fill="white" fill-opacity="0.03"/>
<path d="M114.676 161.552C117.903 167.083 124.925 173.09 124.925 179.503V237.502C124.925 243.533 117.974 249.85 114.866 255.023C112.256 259.385 110.809 264.534 110.998 270.017C111.449 284.106 122.719 295.667 136.741 296.406C152.423 297.241 165.425 284.678 165.425 269.111C165.425 263.986 164.025 259.171 161.557 255.07C158.212 249.468 150.786 242.984 150.786 236.453V180.194C150.786 173.758 158.212 167.393 161.51 161.886C163.977 157.786 165.401 152.994 165.401 147.845C165.448 133.066 153.562 120.789 138.852 120.431C123.525 120.074 110.975 132.446 110.975 147.774C110.975 152.804 112.327 157.524 114.676 161.552ZM138.188 130.348C147.583 130.348 155.199 138 155.199 147.44C155.199 156.88 147.583 164.532 138.188 164.532C128.793 164.532 121.177 156.88 121.177 147.44C121.177 138 128.793 130.348 138.188 130.348ZM138.188 252.377C147.583 252.377 155.199 260.029 155.199 269.469C155.199 278.909 147.583 286.561 138.188 286.561C128.793 286.561 121.177 278.909 121.177 269.469C121.177 260.029 128.793 252.377 138.188 252.377Z" fill="white" fill-opacity="0.03"/>
<path d="M21.8855 124.818C8.62294 124.818 -2.12469 135.616 -2.12469 148.942C-2.12469 162.268 8.62294 173.067 21.8855 173.067C35.148 173.067 45.8957 162.268 45.8957 148.942C45.8957 135.616 35.148 124.818 21.8855 124.818ZM21.8855 164.294C13.4392 164.294 6.60627 157.429 6.60627 148.942C6.60627 140.456 13.4392 133.59 21.8855 133.59C30.3318 133.59 37.1647 140.456 37.1647 148.942C37.1647 157.429 30.3318 164.294 21.8855 164.294Z" fill="white" fill-opacity="0.03"/>
<path d="M372.453 124.818C359.191 124.818 348.443 135.616 348.443 148.942C348.443 162.268 359.191 173.067 372.453 173.067C385.716 173.067 396.464 162.268 396.464 148.942C396.464 135.616 385.716 124.818 372.453 124.818ZM372.453 164.294C364.007 164.294 357.174 157.429 357.174 148.942C357.174 140.456 364.007 133.59 372.453 133.59C380.9 133.59 387.733 140.456 387.733 148.942C387.733 157.429 380.9 164.294 372.453 164.294Z" fill="white" fill-opacity="0.03"/>
</g>
<defs>
<clipPath id="clip0">
<rect width="395" height="295" fill="white"/>
</clipPath>
</defs>
</svg>
