<svg width="25" height="24" viewBox="0 0 25 24" fill="none" xmlns="http://www.w3.org/2000/svg">
<path d="M11.5 2C9.16004 2 6.21004 3.72 6.26004 8.16L2.54004 12.98C2.43004 13.12 2.56004 13.3 2.76004 13.3L5.24004 14.53C5.37004 15.45 5.85004 18.13 6.11004 19.47C6.20004 19.89 10.3 19.57 10.3 19.57L11.5 22" fill="#E3E8FF"/>
<path d="M11.5 2C9.16004 2 6.21004 3.72 6.26004 8.16L2.54004 12.98C2.43004 13.12 2.56004 13.3 2.76004 13.3L5.24004 14.53C5.37004 15.45 5.85004 18.13 6.11004 19.47C6.20004 19.89 10.3 19.57 10.3 19.57L11.5 22" stroke="#69ABEC" stroke-width="1.2" stroke-miterlimit="10" stroke-linecap="round" stroke-linejoin="round"/>
<path fill-rule="evenodd" clip-rule="evenodd" d="M16.345 2.20218C16.4567 1.89018 16.2943 1.54675 15.9823 1.43509C15.6703 1.32343 15.3269 1.48583 15.2152 1.79782L14.1952 4.64782C14.0836 4.95981 14.246 5.30325 14.558 5.41491C14.8699 5.52657 15.2134 5.36417 15.325 5.05218L16.345 2.20218ZM22.5494 5.22032C22.8147 5.02175 22.8688 4.64572 22.6702 4.38044C22.4717 4.11515 22.0956 4.06108 21.8303 4.25965L18.4103 6.81965C18.1451 7.01822 18.091 7.39426 18.2896 7.65954C18.4881 7.92482 18.8642 7.9789 19.1294 7.78032L22.5494 5.22032ZM18.6315 11.8261C18.6557 11.4956 18.9433 11.2473 19.2738 11.2716L22.5438 11.5116C22.8743 11.5359 23.1225 11.8234 23.0982 12.1539C23.074 12.4844 22.7864 12.7326 22.4559 12.7084L19.1859 12.4684C18.8555 12.4441 18.6072 12.1566 18.6315 11.8261ZM12.2201 17.31C11.8887 17.31 11.6201 17.5787 11.6201 17.91C11.6201 18.2414 11.8887 18.51 12.2201 18.51H14.8501C15.1815 18.51 15.4501 18.2414 15.4501 17.91C15.4501 17.5787 15.1815 17.31 14.8501 17.31H12.2201ZM11.6201 15.33C11.6201 14.9986 11.8887 14.73 12.2201 14.73H12.3795C11.0603 13.6226 9.25422 11.1929 10.7302 9.25002C12.1702 7.36002 14.9002 7.36002 16.3402 9.25002C17.8146 11.1909 16.0208 13.6245 14.6985 14.73H14.8501C15.1815 14.73 15.4501 14.9986 15.4501 15.33C15.4501 15.6613 15.1815 15.93 14.8501 15.93H12.2201C11.8887 15.93 11.6201 15.6613 11.6201 15.33ZM14.1402 14.73V12.1747C14.4187 11.9752 14.6001 11.6488 14.6001 11.28C14.6001 10.6725 14.1077 10.18 13.5001 10.18C12.8926 10.18 12.4001 10.6725 12.4001 11.28C12.4001 11.6831 12.6169 12.0355 12.9402 12.227V14.73H14.1402ZM13.4731 11.1837C13.4858 11.1823 13.4987 11.1813 13.5117 11.1807C13.5079 11.1802 13.5041 11.18 13.5001 11.18C13.4908 11.18 13.4817 11.1813 13.4731 11.1837Z" fill="#69ABEC"/>
</svg>
