<svg width="89" height="66" viewBox="0 0 89 66" fill="none" xmlns="http://www.w3.org/2000/svg">
<g clip-path="url(#clip0)">
<path d="M22.8501 43.904C22.1231 42.6667 20.5407 41.3227 20.5407 39.888V26.912C20.5407 25.5627 22.107 24.1493 22.8073 22.992C23.3953 22.016 23.7214 20.864 23.6787 19.6373C23.5771 16.4853 21.0379 13.8987 17.8785 13.7333C14.345 13.5467 11.4155 16.3573 11.4155 19.84C11.4155 20.9867 11.7309 22.064 12.2869 22.9813C13.0406 24.2347 14.7138 25.6853 14.7138 27.1467V39.7333C14.7138 41.1733 13.0406 42.5973 12.2976 43.8293C11.7416 44.7467 11.4209 45.8187 11.4209 46.9707C11.4102 50.2773 14.0884 53.024 17.4028 53.104C20.8561 53.184 23.684 50.416 23.684 46.9867C23.684 45.8613 23.3847 44.8107 22.8501 43.904ZM17.5524 50.8853C15.4355 50.8853 13.7195 49.1733 13.7195 47.0613C13.7195 44.9493 15.4355 43.2373 17.5524 43.2373C19.6693 43.2373 21.3854 44.9493 21.3854 47.0613C21.3854 49.1733 19.6693 50.8853 17.5524 50.8853ZM17.5524 23.5893C15.4355 23.5893 13.7195 21.8773 13.7195 19.7653C13.7195 17.6533 15.4355 15.9413 17.5524 15.9413C19.6693 15.9413 21.3854 17.6533 21.3854 19.7653C21.3854 21.8773 19.6693 23.5893 17.5524 23.5893Z" fill="#1A2151"/>
<path d="M41.774 14.4587C40.5338 15.184 39.1867 16.7627 37.7487 16.7627H24.7425C23.39 16.7627 21.9734 15.2 20.8134 14.5013C19.8351 13.9147 18.6804 13.5893 17.4509 13.632C14.2915 13.7333 11.6988 16.2667 11.5331 19.4187C11.346 22.944 14.1579 25.8667 17.654 25.8667C18.8033 25.8667 19.8832 25.552 20.8027 24.9973C22.0589 24.2453 23.5129 22.576 24.9777 22.576H37.5936C39.037 22.576 40.4643 24.2453 41.6992 24.9867C42.6187 25.5413 43.6931 25.8613 44.8478 25.8613C48.1622 25.872 50.9152 23.2 50.9954 19.8933C51.0756 16.448 48.3012 13.6267 44.8639 13.6267C43.7359 13.6213 42.6828 13.9253 41.774 14.4587ZM48.7716 19.7387C48.7716 21.8507 47.0556 23.5627 44.9387 23.5627C42.8218 23.5627 41.1058 21.8507 41.1058 19.7387C41.1058 17.6267 42.8218 15.9147 44.9387 15.9147C47.0556 15.92 48.7716 17.632 48.7716 19.7387ZM21.4121 19.7387C21.4121 21.8507 19.6961 23.5627 17.5792 23.5627C15.4623 23.5627 13.7463 21.8507 13.7463 19.7387C13.7463 17.6267 15.4623 15.9147 17.5792 15.9147C19.6961 15.92 21.4121 17.632 21.4121 19.7387Z" fill="#1A2151"/>
<path d="M33.5362 11.7173C34.7764 10.992 36.1236 9.41333 37.5616 9.41333H50.5678C51.9202 9.41333 53.3369 10.976 54.4969 11.6747C55.4752 12.2613 56.6299 12.5867 57.8594 12.544C61.0187 12.4427 63.6114 9.90934 63.7771 6.75734C63.9642 3.23201 61.1523 0.309326 57.6562 0.309326C56.5069 0.309326 55.427 0.623995 54.5076 1.17866C53.2513 1.93066 51.7973 3.6 50.3326 3.6H37.7166C36.2733 3.6 34.846 1.93067 33.6111 1.18934C32.6916 0.634673 31.6171 0.314665 30.4624 0.314665C27.1481 0.303998 24.395 2.976 24.3202 6.28267C24.24 9.728 27.0144 12.5493 30.4517 12.5493C31.5743 12.5493 32.6328 12.2453 33.5362 11.7173ZM26.5386 6.432C26.5386 4.32 28.2546 2.60801 30.3716 2.60801C32.4885 2.60801 34.2045 4.32 34.2045 6.432C34.2045 8.544 32.4885 10.256 30.3716 10.256C28.2546 10.256 26.5386 8.544 26.5386 6.432ZM53.9035 6.432C53.9035 4.32 55.6195 2.60801 57.7364 2.60801C59.8533 2.60801 61.5693 4.32 61.5693 6.432C61.5693 8.544 59.8533 10.256 57.7364 10.256C55.6195 10.256 53.9035 8.544 53.9035 6.432Z" fill="#1A2151"/>
<path d="M63.0554 30.5973C62.3283 29.36 60.746 28.016 60.746 26.5813V13.6053C60.746 12.256 62.3123 10.8427 63.0126 9.68533C63.6007 8.70933 63.9268 7.55732 63.884 6.33066C63.7824 3.17866 61.2432 0.591986 58.0838 0.426652C54.5503 0.239986 51.6208 3.04533 51.6208 6.53333C51.6208 7.67999 51.9363 8.75733 52.4922 9.67467C53.246 10.928 54.9192 12.3787 54.9192 13.84V26.4267C54.9192 27.8667 53.2459 29.2907 52.5029 30.5227C51.9469 31.44 51.6262 32.512 51.6262 33.664C51.6155 36.9707 54.2937 39.7173 57.6081 39.7973C61.0614 39.8773 63.8893 37.1093 63.8893 33.68C63.8893 32.5547 63.5846 31.504 63.0554 30.5973ZM57.7578 37.5787C55.6408 37.5787 53.9249 35.8667 53.9249 33.7547C53.9249 31.6427 55.6408 29.9307 57.7578 29.9307C59.8747 29.9307 61.5906 31.6427 61.5906 33.7547C61.5906 35.8667 59.8747 37.5787 57.7578 37.5787ZM57.7578 10.2773C55.6408 10.2773 53.9249 8.56533 53.9249 6.45333C53.9249 4.34133 55.6408 2.62932 57.7578 2.62932C59.8747 2.62932 61.5906 4.34133 61.5906 6.45333C61.5906 8.57066 59.8747 10.2773 57.7578 10.2773Z" fill="#1A2151"/>
<path d="M66.1666 22.8267C66.8936 24.064 68.4759 25.408 68.4759 26.8427V39.8187C68.4759 41.168 66.9096 42.5814 66.2094 43.7387C65.6213 44.7147 65.2952 45.8667 65.338 47.0934C65.4396 50.2454 67.9788 52.832 71.1381 52.9974C74.6716 53.184 77.6011 50.3734 77.6011 46.8907C77.6011 45.744 77.2857 44.6667 76.7298 43.7494C75.976 42.496 74.3028 41.0454 74.3028 39.584V26.9974C74.3028 25.5574 75.976 24.1334 76.7191 22.9014C77.275 21.984 77.5958 20.912 77.5958 19.76C77.6065 16.4534 74.9282 13.7067 71.6139 13.6267C68.1605 13.5467 65.3326 16.3147 65.3326 19.744C65.3326 20.8694 65.6373 21.9254 66.1666 22.8267ZM71.4642 15.8454C73.5811 15.8454 75.2971 17.5574 75.2971 19.6694C75.2971 21.7814 73.5811 23.4934 71.4642 23.4934C69.3473 23.4934 67.6313 21.7814 67.6313 19.6694C67.6313 17.5574 69.3473 15.8454 71.4642 15.8454ZM71.4642 43.1467C73.5811 43.1467 75.2971 44.8587 75.2971 46.9707C75.2971 49.0827 73.5811 50.7947 71.4642 50.7947C69.3473 50.7947 67.6313 49.0827 67.6313 46.9707C67.6313 44.8587 69.3473 43.1467 71.4642 43.1467Z" fill="#1A2151"/>
<path d="M47.2426 52.2773C48.4828 51.552 49.83 49.9733 51.268 49.9733H64.2742C65.6266 49.9733 67.0433 51.536 68.2033 52.2347C69.1816 52.8213 70.3363 53.1467 71.5658 53.104C74.7251 53.0027 77.3178 50.4693 77.4835 47.3173C77.6706 43.792 74.8588 40.8693 71.3626 40.8693C70.2133 40.8693 69.1335 41.184 68.214 41.7387C66.9577 42.4907 65.5037 44.16 64.039 44.16H51.423C49.9797 44.16 48.5523 42.4907 47.3175 41.7493C46.398 41.1947 45.3235 40.8747 44.1688 40.8747C40.8545 40.864 38.1014 43.536 38.0212 46.8426C37.941 50.288 40.7155 53.1093 44.1528 53.1093C45.2807 53.1093 46.3339 52.8053 47.2426 52.2773ZM40.245 46.992C40.245 44.88 41.961 43.168 44.0779 43.168C46.1948 43.168 47.9109 44.88 47.9109 46.992C47.9109 49.104 46.1948 50.816 44.0779 50.816C41.961 50.816 40.245 49.104 40.245 46.992ZM67.6046 46.992C67.6046 44.88 69.3206 43.168 71.4375 43.168C73.5544 43.168 75.2704 44.88 75.2704 46.992C75.2704 49.104 73.5544 50.816 71.4375 50.816C69.3206 50.816 67.6046 49.104 67.6046 46.992Z" fill="#1A2151"/>
<path d="M25.8383 36.144C26.5654 37.3813 28.1477 38.7253 28.1477 40.16V53.136C28.1477 54.4853 26.5814 55.8986 25.8811 57.056C25.2931 58.032 24.967 59.184 25.0097 60.4106C25.1113 63.5626 27.6506 66.1493 30.8099 66.3146C34.3434 66.5013 37.2729 63.6906 37.2729 60.208C37.2729 59.0613 36.9575 57.984 36.4015 57.0666C35.6478 55.8133 33.9746 54.3626 33.9746 52.9013V40.3146C33.9746 38.8746 35.6478 37.4506 36.3908 36.2186C36.9468 35.3013 37.2675 34.2293 37.2675 33.0773C37.2782 29.7706 34.6 27.024 31.2856 26.944C27.8323 26.864 25.0044 29.632 25.0044 33.0613C25.0044 34.1866 25.3091 35.2426 25.8383 36.144ZM31.136 29.1626C33.2529 29.1626 34.9689 30.8746 34.9689 32.9866C34.9689 35.0986 33.2529 36.8106 31.136 36.8106C29.0191 36.8106 27.3031 35.0986 27.3031 32.9866C27.3031 30.8746 29.0191 29.1626 31.136 29.1626ZM31.136 56.464C33.2529 56.464 34.9689 58.176 34.9689 60.288C34.9689 62.4 33.2529 64.112 31.136 64.112C29.0191 64.112 27.3031 62.4 27.3031 60.288C27.3031 58.176 29.0191 56.464 31.136 56.464Z" fill="#1A2151"/>
<path d="M4.93113 27.9253C1.94286 27.9253 -0.47876 30.3413 -0.47876 33.3226C-0.47876 36.304 1.94286 38.72 4.93113 38.72C7.9194 38.72 10.341 36.304 10.341 33.3226C10.341 30.3413 7.9194 27.9253 4.93113 27.9253ZM4.93113 36.7573C3.02805 36.7573 1.48847 35.2213 1.48847 33.3226C1.48847 31.424 3.02805 29.888 4.93113 29.888C6.83422 29.888 8.37379 31.424 8.37379 33.3226C8.37379 35.2213 6.83422 36.7573 4.93113 36.7573Z" fill="#1A2151"/>
<path d="M83.9199 27.9253C80.9316 27.9253 78.51 30.3413 78.51 33.3226C78.51 36.304 80.9316 38.72 83.9199 38.72C86.9082 38.72 89.3298 36.304 89.3298 33.3226C89.3298 30.3413 86.9082 27.9253 83.9199 27.9253ZM83.9199 36.7573C82.0168 36.7573 80.4772 35.2213 80.4772 33.3226C80.4772 31.424 82.0168 29.888 83.9199 29.888C85.823 29.888 87.3626 31.424 87.3626 33.3226C87.3626 35.2213 85.823 36.7573 83.9199 36.7573Z" fill="#1A2151"/>
</g>
<defs>
<clipPath id="clip0">
<rect width="89" height="66" fill="white"/>
</clipPath>
</defs>
</svg>
