<svg width="59" height="42" viewBox="0 0 59 42" fill="none" xmlns="http://www.w3.org/2000/svg">
<g clip-path="url(#clip0)">
<path d="M15.1479 27.9388C14.6659 27.1514 13.617 26.2961 13.617 25.3831V17.1257C13.617 16.267 14.6553 15.3676 15.1195 14.6311C15.5094 14.01 15.7255 13.2769 15.6972 12.4963C15.6298 10.4905 13.9465 8.84445 11.8522 8.73924C9.5097 8.62045 7.56769 10.4091 7.56769 12.6253C7.56769 13.355 7.77677 14.0406 8.14533 14.6243C8.64501 15.4219 9.75421 16.3451 9.75421 17.275V25.2847C9.75421 26.2011 8.64501 27.1072 8.15242 27.8912C7.78387 28.475 7.57124 29.1572 7.57124 29.8903C7.56415 31.9945 9.3396 33.7424 11.5368 33.7933C13.8261 33.8442 15.7007 32.0828 15.7007 29.9005C15.7007 29.1843 15.5023 28.5157 15.1479 27.9388ZM11.636 32.3814C10.2326 32.3814 9.09507 31.292 9.09507 29.948C9.09507 28.604 10.2326 27.5145 11.636 27.5145C13.0393 27.5145 14.1769 28.604 14.1769 29.948C14.1769 31.292 13.0393 32.3814 11.636 32.3814ZM11.636 15.0112C10.2326 15.0112 9.09507 13.9218 9.09507 12.5778C9.09507 11.2338 10.2326 10.1443 11.636 10.1443C13.0393 10.1443 14.1769 11.2338 14.1769 12.5778C14.1769 13.9218 13.0393 15.0112 11.636 15.0112Z" fill="#00796B"/>
<path d="M27.6929 9.20113C26.8707 9.6627 25.9777 10.6673 25.0244 10.6673H16.4023C15.5057 10.6673 14.5666 9.67289 13.7976 9.22829C13.1491 8.85495 12.3836 8.64792 11.5686 8.67507C9.47417 8.73956 7.75542 10.3517 7.64556 12.3575C7.52153 14.6009 9.38557 16.4608 11.7032 16.4608C12.4651 16.4608 13.181 16.2605 13.7905 15.9076C14.6233 15.429 15.5872 14.3667 16.5582 14.3667H24.9216C25.8785 14.3667 26.8247 15.429 27.6433 15.9008C28.2528 16.2537 28.9651 16.4574 29.7306 16.4574C31.9277 16.4642 33.7528 14.7638 33.806 12.6596C33.8591 10.4671 32.0199 8.67167 29.7412 8.67167C28.9935 8.66828 28.2953 8.86173 27.6929 9.20113ZM32.3317 12.5611C32.3317 13.9051 31.1942 14.9946 29.7908 14.9946C28.3875 14.9946 27.2499 13.9051 27.2499 12.5611C27.2499 11.2171 28.3875 10.1277 29.7908 10.1277C31.1942 10.1311 32.3317 11.2205 32.3317 12.5611ZM14.1945 12.5611C14.1945 13.9051 13.057 14.9946 11.6536 14.9946C10.2503 14.9946 9.1127 13.9051 9.1127 12.5611C9.1127 11.2171 10.2503 10.1277 11.6536 10.1277C13.057 10.1311 14.1945 11.2205 14.1945 12.5611Z" fill="#00796B"/>
<path d="M22.2319 7.45642C23.0541 6.99484 23.9471 5.99023 24.9004 5.99023H33.5225C34.4191 5.99023 35.3582 6.98466 36.1272 7.42927C36.7757 7.8026 37.5412 8.00963 38.3562 7.98247C40.4506 7.91799 42.1694 6.30588 42.2792 4.30006C42.4033 2.05666 40.5392 0.196777 38.2216 0.196777C37.4597 0.196777 36.7438 0.397021 36.1343 0.749991C35.3015 1.22854 34.3376 2.29084 33.3666 2.29084H25.0032C24.0464 2.29084 23.1002 1.22854 22.2815 0.756786C21.672 0.403816 20.9597 0.200175 20.1942 0.200175C17.9971 0.193387 16.172 1.89375 16.1224 3.99799C16.0692 6.19048 17.9085 7.98587 20.1871 7.98587C20.9313 7.98587 21.633 7.79242 22.2319 7.45642ZM17.5931 4.09302C17.5931 2.74902 18.7306 1.65957 20.134 1.65957C21.5373 1.65957 22.6749 2.74902 22.6749 4.09302C22.6749 5.43702 21.5373 6.52648 20.134 6.52648C18.7306 6.52648 17.5931 5.43702 17.5931 4.09302ZM35.7338 4.09302C35.7338 2.74902 36.8714 1.65957 38.2747 1.65957C39.6781 1.65957 40.8157 2.74902 40.8157 4.09302C40.8157 5.43702 39.6781 6.52648 38.2747 6.52648C36.8714 6.52648 35.7338 5.43702 35.7338 4.09302Z" fill="#00796B"/>
<path d="M41.8009 19.4707C41.3189 18.6834 40.27 17.8281 40.27 16.9151V8.65766C40.27 7.799 41.3083 6.8996 41.7726 6.16311C42.1624 5.54202 42.3785 4.80893 42.3502 4.02832C42.2829 2.0225 40.5995 0.376441 38.5052 0.271229C36.1627 0.152441 34.2207 1.93766 34.2207 4.15729C34.2207 4.88699 34.4298 5.57257 34.7983 6.15633C35.298 6.95391 36.4072 7.87706 36.4072 8.807V16.8167C36.4072 17.733 35.298 18.6392 34.8054 19.4232C34.4369 20.007 34.2242 20.6892 34.2242 21.4223C34.2171 23.5265 35.9926 25.2744 38.1897 25.3253C40.479 25.3762 42.3537 23.6147 42.3537 21.4324C42.3537 20.7163 42.1517 20.0477 41.8009 19.4707ZM38.289 23.9134C36.8856 23.9134 35.7481 22.824 35.7481 21.48C35.7481 20.136 36.8856 19.0465 38.289 19.0465C39.6923 19.0465 40.8299 20.136 40.8299 21.48C40.8299 22.824 39.6923 23.9134 38.289 23.9134ZM38.289 6.53984C36.8856 6.53984 35.7481 5.45039 35.7481 4.10639C35.7481 2.76239 36.8856 1.67293 38.289 1.67293C39.6923 1.67293 40.8299 2.76239 40.8299 4.10639C40.8299 5.45378 39.6923 6.53984 38.289 6.53984Z" fill="#00796B"/>
<path d="M43.8633 14.526C44.3453 15.3134 45.3942 16.1687 45.3942 17.0817V25.3391C45.3942 26.1978 44.3559 27.0972 43.8917 27.8337C43.5019 28.4548 43.2857 29.1878 43.314 29.9685C43.3814 31.9743 45.0647 33.6203 47.1591 33.7255C49.5015 33.8443 51.4435 32.0557 51.4435 29.8395C51.4435 29.1098 51.2344 28.4242 50.8659 27.8405C50.3662 27.0429 49.257 26.1197 49.257 25.1898V17.1801C49.257 16.2637 50.3662 15.3576 50.8588 14.5736C51.2273 13.9898 51.44 13.3076 51.44 12.5745C51.4471 10.4703 49.6716 8.7224 47.4745 8.67149C45.1852 8.62058 43.3105 10.382 43.3105 12.5643C43.3105 13.2805 43.5125 13.9525 43.8633 14.526ZM47.3752 10.0834C48.7786 10.0834 49.9161 11.1728 49.9161 12.5168C49.9161 13.8608 48.7786 14.9503 47.3752 14.9503C45.9719 14.9503 44.8343 13.8608 44.8343 12.5168C44.8343 11.1728 45.9719 10.0834 47.3752 10.0834ZM47.3752 27.4569C48.7786 27.4569 49.9161 28.5464 49.9161 29.8904C49.9161 31.2344 48.7786 32.3239 47.3752 32.3239C45.9719 32.3239 44.8343 31.2344 44.8343 29.8904C44.8343 28.5464 45.9719 27.4569 47.3752 27.4569Z" fill="#00796B"/>
<path d="M31.3182 33.2674C32.1404 32.8059 33.0334 31.8013 33.9867 31.8013H42.6088C43.5054 31.8013 44.4445 32.7957 45.2135 33.2403C45.862 33.6136 46.6275 33.8207 47.4426 33.7935C49.537 33.729 51.2557 32.1169 51.3656 30.1111C51.4896 27.8677 49.6256 26.0078 47.3079 26.0078C46.546 26.0078 45.8301 26.2081 45.2206 26.561C44.3878 27.0396 43.4239 28.1019 42.4529 28.1019H34.0895C33.1327 28.1019 32.1865 27.0396 31.3678 26.5678C30.7583 26.2148 30.046 26.0112 29.2805 26.0112C27.0834 26.0044 25.2583 27.7048 25.2052 29.809C25.152 32.0015 26.9912 33.7969 29.2699 33.7969C30.0176 33.7969 30.7158 33.6034 31.3182 33.2674ZM26.6794 29.904C26.6794 28.56 27.8169 27.4706 29.2203 27.4706C30.6236 27.4706 31.7612 28.56 31.7612 29.904C31.7612 31.248 30.6236 32.3375 29.2203 32.3375C27.8169 32.3375 26.6794 31.248 26.6794 29.904ZM44.8166 29.904C44.8166 28.56 45.9542 27.4706 47.3575 27.4706C48.7609 27.4706 49.8984 28.56 49.8984 29.904C49.8984 31.248 48.7609 32.3375 47.3575 32.3375C45.9542 32.3375 44.8166 31.248 44.8166 29.904Z" fill="#00796B"/>
<path d="M17.1288 23.0006C17.6108 23.788 18.6598 24.6433 18.6598 25.5563V33.8137C18.6598 34.6724 17.6214 35.5718 17.1572 36.3083C16.7674 36.9294 16.5512 37.6625 16.5795 38.4431C16.6469 40.4489 18.3302 42.095 20.4246 42.2002C22.767 42.319 24.709 40.5304 24.709 38.3141C24.709 37.5844 24.4999 36.8988 24.1314 36.3151C23.6317 35.5175 22.5225 34.5943 22.5225 33.6644V25.6547C22.5225 24.7383 23.6317 23.8322 24.1243 23.0482C24.4929 22.4644 24.7055 21.7822 24.7055 21.0491C24.7126 18.9449 22.9371 17.197 20.74 17.1461C18.4507 17.0952 16.576 18.8566 16.576 21.0389C16.576 21.7551 16.778 22.4271 17.1288 23.0006ZM20.6407 18.558C22.0441 18.558 23.1817 19.6474 23.1817 20.9914C23.1817 22.3354 22.0441 23.4249 20.6407 23.4249C19.2374 23.4249 18.0998 22.3354 18.0998 20.9914C18.0998 19.6474 19.2374 18.558 20.6407 18.558ZM20.6407 35.9316C22.0441 35.9316 23.1817 37.021 23.1817 38.365C23.1817 39.709 22.0441 40.7985 20.6407 40.7985C19.2374 40.7985 18.0998 39.709 18.0998 38.365C18.0998 37.021 19.2374 35.9316 20.6407 35.9316Z" fill="#00796B"/>
<path d="M3.26901 17.7705C1.28802 17.7705 -0.317322 19.308 -0.317322 21.2052C-0.317322 23.1024 1.28802 24.6399 3.26901 24.6399C5.25 24.6399 6.85534 23.1024 6.85534 21.2052C6.85534 19.308 5.25 17.7705 3.26901 17.7705ZM3.26901 23.3909C2.00741 23.3909 0.986797 22.4134 0.986797 21.2052C0.986797 19.9969 2.00741 19.0195 3.26901 19.0195C4.53061 19.0195 5.55122 19.9969 5.55122 21.2052C5.55122 22.4134 4.53061 23.3909 3.26901 23.3909Z" fill="#00796B"/>
<path d="M55.6323 17.7705C53.6513 17.7705 52.046 19.308 52.046 21.2052C52.046 23.1024 53.6513 24.6399 55.6323 24.6399C57.6133 24.6399 59.2186 23.1024 59.2186 21.2052C59.2186 19.308 57.6133 17.7705 55.6323 17.7705ZM55.6323 23.3909C54.3707 23.3909 53.3501 22.4134 53.3501 21.2052C53.3501 19.9969 54.3707 19.0195 55.6323 19.0195C56.8939 19.0195 57.9145 19.9969 57.9145 21.2052C57.9145 22.4134 56.8939 23.3909 55.6323 23.3909Z" fill="#00796B"/>
</g>
<defs>
<clipPath id="clip0">
<rect width="59" height="42" fill="white"/>
</clipPath>
</defs>
</svg>
