<svg width="204" height="158" viewBox="0 0 204 158" fill="none" xmlns="http://www.w3.org/2000/svg">
<path d="M164.71 54.3554C156.747 48.4172 144.277 42.8013 130.495 38.9478C117.947 35.439 105.707 33.745 96.0294 34.1776L95.979 33.0548C105.772 32.6173 118.139 34.3255 130.799 37.8656C144.709 41.755 157.315 47.4373 165.384 53.4552L164.71 54.3554Z" fill="#CCCCCC"/>
<path d="M163.883 58.9292C163.89 64.1903 162.784 69.3938 160.638 74.1996C160.459 74.602 160.273 75.0006 160.078 75.3954C156.346 83.0224 150.133 89.1626 142.453 92.8144C134.773 96.4663 126.079 97.4144 117.79 95.5041C109.5 93.5938 102.104 88.9378 96.8078 82.2955C91.5115 75.6532 88.6276 67.4166 88.6263 58.9292C88.6263 58.0604 88.656 57.1984 88.7153 56.3431C88.7435 55.9081 88.7799 55.4758 88.8246 55.0461C89.8225 45.4784 94.4639 36.6579 101.791 30.4048C109.118 24.1516 118.572 20.9431 128.202 21.4413C137.831 21.9395 146.901 26.1063 153.541 33.082C160.18 40.0577 163.882 49.3098 163.883 58.9292V58.9292Z" fill="#00796B"/>
<path opacity="0.1" d="M160.638 74.1996C160.459 74.602 160.273 75.0006 160.078 75.3955C158.979 75.5146 157.821 75.6011 156.606 75.6551C155.6 75.7 154.565 75.7225 153.507 75.7225C144.267 75.7225 133.146 74.0209 121.785 70.8448C109.125 67.3045 97.6707 62.3526 89.5321 56.9006C89.255 56.7151 88.9827 56.5293 88.7153 56.3431C88.7435 55.9082 88.7799 55.4758 88.8246 55.0461C89.2561 55.353 89.7011 55.6602 90.1596 55.9677C98.2024 61.3546 109.542 66.2537 122.09 69.7625C133.351 72.9117 144.367 74.5986 153.501 74.5986C154.546 74.5986 155.564 74.5765 156.556 74.5323C158 74.4671 159.361 74.3562 160.638 74.1996Z" fill="black"/>
<path d="M153.507 74.8236C144.267 74.8238 133.146 73.1221 121.786 69.9456C109.125 66.4055 97.6706 61.4535 89.532 56.0016C81.2235 50.4359 77.3275 44.9517 78.5616 40.5593C79.7956 36.1669 85.9813 33.5017 95.979 33.0547L96.0294 34.1775C91.3606 34.3862 87.5557 35.0785 84.7204 36.2351C81.8921 37.3888 80.1849 38.9458 79.6463 40.8627C79.1078 42.7795 79.7552 44.9948 81.5704 47.447C83.39 49.9051 86.28 52.4694 90.16 55.0685C98.2018 60.4556 109.541 65.3548 122.09 68.8634C133.352 72.0123 144.366 73.6997 153.502 73.6999C154.545 73.6999 155.563 73.6778 156.555 73.6335C161.224 73.4248 165.029 72.7325 167.864 71.5759C170.693 70.4222 172.4 68.8653 172.938 66.9484C173.905 63.5065 170.983 59.0341 164.709 54.3553L165.384 53.4552C168.612 55.8629 171.002 58.2362 172.487 60.509C174.079 62.9457 174.596 65.2144 174.023 67.2518C172.789 71.6442 166.603 74.3093 156.606 74.7563C155.6 74.8013 154.565 74.8236 153.507 74.8236Z" fill="#CCCCCC"/>
<path d="M127.25 14.621C127.488 14.621 127.681 14.4285 127.681 14.1909C127.681 13.9533 127.488 13.7607 127.25 13.7607C127.012 13.7607 126.819 13.9533 126.819 14.1909C126.819 14.4285 127.012 14.621 127.25 14.621Z" fill="#F2F2F2"/>
<path d="M70.0464 33.2867C70.456 33.2867 70.7881 32.9553 70.7881 32.5467C70.7881 32.138 70.456 31.8066 70.0464 31.8066C69.6367 31.8066 69.3046 32.138 69.3046 32.5467C69.3046 32.9553 69.6367 33.2867 70.0464 33.2867Z" fill="#CCCCCC"/>
<path d="M68.4654 62.9721C69.2747 62.9721 69.9308 62.3176 69.9308 61.5102C69.9308 60.7028 69.2747 60.0483 68.4654 60.0483C67.6561 60.0483 67 60.7028 67 61.5102C67 62.3176 67.6561 62.9721 68.4654 62.9721Z" fill="#CCCCCC"/>
<path d="M156.427 17.746C156.966 17.746 157.403 17.3098 157.403 16.7717C157.403 16.2336 156.966 15.7974 156.427 15.7974C155.887 15.7974 155.45 16.2336 155.45 16.7717C155.45 17.3098 155.887 17.746 156.427 17.746Z" fill="#CCCCCC"/>
<path d="M191.065 58.7905C191.941 58.7905 192.651 58.0823 192.651 57.2086C192.651 56.3349 191.941 55.6267 191.065 55.6267C190.189 55.6267 189.479 56.3349 189.479 57.2086C189.479 58.0823 190.189 58.7905 191.065 58.7905Z" fill="#CCCCCC"/>
<path d="M178.666 32.6221C179.042 32.6221 179.346 32.3182 179.346 31.9434C179.346 31.5685 179.042 31.2646 178.666 31.2646C178.29 31.2646 177.986 31.5685 177.986 31.9434C177.986 32.3182 178.29 32.6221 178.666 32.6221Z" fill="#CCCCCC"/>
<path d="M96.0611 24.2829C96.6473 24.2829 97.1224 23.8088 97.1224 23.2241C97.1224 22.6393 96.6473 22.1653 96.0611 22.1653C95.4749 22.1653 94.9998 22.6393 94.9998 23.2241C94.9998 23.8088 95.4749 24.2829 96.0611 24.2829Z" fill="#CCCCCC"/>
<path d="M176.285 54.6797C176.66 54.6797 176.965 54.3758 176.965 54.001C176.965 53.6261 176.66 53.3223 176.285 53.3223C175.909 53.3223 175.604 53.6261 175.604 54.001C175.604 54.3758 175.909 54.6797 176.285 54.6797Z" fill="#CCCCCC"/>
<path d="M71.9149 83.0022C72.3825 83.0022 72.7617 82.624 72.7617 82.1575C72.7617 81.6909 72.3825 81.3127 71.9149 81.3127C71.4472 81.3127 71.0681 81.6909 71.0681 82.1575C71.0681 82.624 71.4472 83.0022 71.9149 83.0022Z" fill="#CCCCCC"/>
<path d="M89.0185 94.8296C89.5249 94.8296 89.9355 94.42 89.9355 93.9148C89.9355 93.4096 89.5249 93 89.0185 93C88.512 93 88.1014 93.4096 88.1014 93.9148C88.1014 94.42 88.512 94.8296 89.0185 94.8296Z" fill="#CCCCCC"/>
<path d="M115.676 1.80527H113.866V0H112.895V1.80527H111.085V2.7746H112.895V4.57986H113.866V2.7746H115.676V1.80527Z" fill="#CCCCCC"/>
<path d="M157.652 99.4869H156.516V98.3535H155.906V99.4869H154.77V100.095H155.906V101.229H156.516V100.095H157.652V99.4869Z" fill="#CCCCCC"/>
<path d="M183.878 93.6847H183.029V92.8374H182.573V93.6847H181.723V94.1398H182.573V94.9871H183.029V94.1398H183.878V93.6847Z" fill="#CCCCCC"/>
<path opacity="0.1" d="M126.819 32.69C128.565 32.69 129.981 31.2777 129.981 29.5356C129.981 27.7934 128.565 26.3811 126.819 26.3811C125.073 26.3811 123.657 27.7934 123.657 29.5356C123.657 31.2777 125.073 32.69 126.819 32.69Z" fill="black"/>
<path opacity="0.1" d="M102.529 55.7747C104.275 55.7747 105.691 54.3624 105.691 52.6203C105.691 50.8781 104.275 49.4658 102.529 49.4658C100.783 49.4658 99.3668 50.8781 99.3668 52.6203C99.3668 54.3624 100.783 55.7747 102.529 55.7747Z" fill="black"/>
<path opacity="0.1" d="M137.455 87.4627C139.201 87.4627 140.617 86.0504 140.617 84.3082C140.617 82.5661 139.201 81.1538 137.455 81.1538C135.708 81.1538 134.293 82.5661 134.293 84.3082C134.293 86.0504 135.708 87.4627 137.455 87.4627Z" fill="black"/>
<path opacity="0.1" d="M126.819 60.65C128.565 60.65 129.981 59.2377 129.981 57.4955C129.981 55.7534 128.565 54.3411 126.819 54.3411C125.073 54.3411 123.657 55.7534 123.657 57.4955C123.657 59.2377 125.073 60.65 126.819 60.65Z" fill="black"/>
<path opacity="0.1" d="M104.11 77.9993C105.856 77.9993 107.272 76.587 107.272 74.8449C107.272 73.1027 105.856 71.6904 104.11 71.6904C102.364 71.6904 100.948 73.1027 100.948 74.8449C100.948 76.587 102.364 77.9993 104.11 77.9993Z" fill="black"/>
<path opacity="0.1" d="M143.779 43.7305C145.525 43.7305 146.941 42.3182 146.941 40.5761C146.941 38.8339 145.525 37.4216 143.779 37.4216C142.032 37.4216 140.617 38.8339 140.617 40.5761C140.617 42.3182 142.032 43.7305 143.779 43.7305Z" fill="black"/>
<path opacity="0.1" d="M154.271 65.0948C156.017 65.0948 157.433 63.6825 157.433 61.9403C157.433 60.1982 156.017 58.7859 154.271 58.7859C152.525 58.7859 151.109 60.1982 151.109 61.9403C151.109 63.6825 152.525 65.0948 154.271 65.0948Z" fill="black"/>
<path d="M126.819 47.8888C129.121 47.8888 130.987 46.0271 130.987 43.7306C130.987 41.4342 129.121 39.5725 126.819 39.5725C124.517 39.5725 122.651 41.4342 122.651 43.7306C122.651 46.0271 124.517 47.8888 126.819 47.8888Z" fill="white"/>
<path d="M126.819 37.7085C125.256 37.7085 123.757 38.3279 122.652 39.4303C121.547 40.5328 120.926 42.0281 120.926 43.5872C120.926 46.8339 126.819 57.4954 126.819 57.4954C126.819 57.4954 132.712 46.8339 132.712 43.5872C132.712 42.0281 132.091 40.5328 130.986 39.4303C129.881 38.3279 128.382 37.7085 126.819 37.7085ZM126.819 46.4549C126.279 46.4549 125.751 46.2951 125.302 45.9958C124.853 45.6964 124.503 45.2709 124.296 44.7731C124.089 44.2753 124.035 43.7276 124.14 43.1991C124.246 42.6707 124.506 42.1852 124.888 41.8042C125.27 41.4232 125.756 41.1638 126.286 41.0587C126.816 40.9535 127.365 41.0075 127.864 41.2137C128.363 41.4199 128.789 41.7691 129.089 42.2171C129.39 42.6651 129.55 43.1918 129.55 43.7306C129.55 44.0884 129.479 44.4426 129.342 44.7732C129.205 45.1037 129.003 45.404 128.75 45.657C128.496 45.91 128.195 46.1106 127.864 46.2475C127.533 46.3844 127.177 46.4549 126.819 46.4549Z" fill="#CCCCCC"/>
<path d="M104.11 65.6683C106.412 65.6683 108.278 63.8067 108.278 61.5102C108.278 59.2137 106.412 57.3521 104.11 57.3521C101.808 57.3521 99.9418 59.2137 99.9418 61.5102C99.9418 63.8067 101.808 65.6683 104.11 65.6683Z" fill="white"/>
<path d="M104.11 55.488C102.547 55.488 101.048 56.1074 99.943 57.2099C98.8379 58.3124 98.217 59.8076 98.217 61.3668C98.217 64.6135 104.11 75.275 104.11 75.275C104.11 75.275 110.003 64.6135 110.003 61.3668C110.003 60.5948 109.85 59.8303 109.554 59.1171C109.258 58.4038 108.824 57.7558 108.277 57.2099C107.73 56.664 107.08 56.231 106.365 55.9355C105.65 55.6401 104.884 55.488 104.11 55.488ZM104.11 64.2344C103.57 64.2344 103.042 64.0747 102.593 63.7753C102.144 63.476 101.794 63.0505 101.587 62.5527C101.38 62.0549 101.326 61.5071 101.432 60.9787C101.537 60.4502 101.797 59.9648 102.179 59.5838C102.561 59.2028 103.047 58.9433 103.577 58.8382C104.107 58.7331 104.656 58.787 105.155 58.9932C105.654 59.1994 106.08 59.5486 106.381 59.9966C106.681 60.4446 106.841 60.9713 106.841 61.5102C106.841 61.8679 106.77 62.2222 106.633 62.5527C106.496 62.8832 106.294 63.1836 106.041 63.4365C105.787 63.6895 105.486 63.8902 105.155 64.0271C104.824 64.164 104.469 64.2345 104.11 64.2344Z" fill="#CCCCCC"/>
<path d="M154.271 52.7638C156.573 52.7638 158.439 50.9021 158.439 48.6056C158.439 46.3092 156.573 44.4475 154.271 44.4475C151.969 44.4475 150.103 46.3092 150.103 48.6056C150.103 50.9021 151.969 52.7638 154.271 52.7638Z" fill="white"/>
<path d="M154.271 42.5835C153.497 42.5835 152.731 42.7356 152.016 43.031C151.301 43.3264 150.651 43.7595 150.104 44.3053C149.557 44.8512 149.123 45.4993 148.827 46.2125C148.53 46.9258 148.378 47.6902 148.378 48.4622C148.378 51.709 154.271 62.3705 154.271 62.3705C154.271 62.3705 160.164 51.709 160.164 48.4622C160.164 47.6902 160.011 46.9258 159.715 46.2125C159.419 45.4993 158.985 44.8512 158.438 44.3053C157.891 43.7595 157.241 43.3264 156.526 43.031C155.811 42.7356 155.045 42.5835 154.271 42.5835ZM154.271 51.3299C153.731 51.3299 153.203 51.1701 152.754 50.8708C152.305 50.5714 151.955 50.146 151.748 49.6482C151.541 49.1503 151.487 48.6026 151.593 48.0741C151.698 47.5457 151.958 47.0602 152.34 46.6792C152.722 46.2982 153.208 46.0388 153.738 45.9337C154.268 45.8285 154.817 45.8825 155.316 46.0887C155.815 46.2949 156.241 46.6441 156.542 47.0921C156.842 47.5401 157.002 48.0668 157.002 48.6056C157.002 48.9634 156.931 49.3176 156.794 49.6482C156.657 49.9787 156.455 50.279 156.202 50.532C155.948 50.785 155.647 50.9856 155.316 51.1225C154.985 51.2595 154.63 51.3299 154.271 51.3299Z" fill="#CCCCCC"/>
<path d="M126.819 19.9288C129.121 19.9288 130.987 18.0672 130.987 15.7707C130.987 13.4742 129.121 11.6125 126.819 11.6125C124.517 11.6125 122.651 13.4742 122.651 15.7707C122.651 18.0672 124.517 19.9288 126.819 19.9288Z" fill="white"/>
<path d="M126.819 9.74854C125.256 9.74854 123.757 10.3679 122.652 11.4704C121.547 12.5729 120.926 14.0681 120.926 15.6273C120.926 18.874 126.819 29.5355 126.819 29.5355C126.819 29.5355 132.712 18.874 132.712 15.6273C132.712 14.0681 132.091 12.5728 130.986 11.4704C129.881 10.3679 128.382 9.74854 126.819 9.74854ZM126.819 18.495C126.279 18.495 125.751 18.3352 125.302 18.0358C124.853 17.7365 124.503 17.311 124.296 16.8132C124.089 16.3154 124.035 15.7676 124.14 15.2392C124.246 14.7107 124.506 14.2253 124.888 13.8443C125.27 13.4633 125.756 13.2038 126.286 13.0987C126.816 12.9936 127.365 13.0475 127.864 13.2537C128.363 13.4599 128.789 13.8091 129.089 14.2571C129.39 14.7051 129.55 15.2318 129.55 15.7707C129.55 16.1284 129.479 16.4827 129.342 16.8132C129.205 17.1437 129.003 17.4441 128.75 17.697C128.496 17.95 128.195 18.1507 127.864 18.2876C127.533 18.4245 127.177 18.495 126.819 18.495Z" fill="#CCCCCC"/>
<path d="M137.455 75.1317C139.757 75.1317 141.623 73.27 141.623 70.9736C141.623 68.6771 139.757 66.8154 137.455 66.8154C135.153 66.8154 133.287 68.6771 133.287 70.9736C133.287 73.27 135.153 75.1317 137.455 75.1317Z" fill="white"/>
<path d="M137.455 64.9514C135.892 64.9514 134.393 65.5708 133.288 66.6732C132.183 67.7757 131.562 69.271 131.562 70.8301C131.562 74.0769 137.455 84.7383 137.455 84.7383C137.455 84.7383 143.348 74.0769 143.348 70.8301C143.348 70.0581 143.195 69.2937 142.899 68.5804C142.603 67.8672 142.169 67.2191 141.622 66.6732C141.074 66.1274 140.425 65.6943 139.71 65.3989C138.995 65.1035 138.229 64.9514 137.455 64.9514ZM137.455 73.6978C136.915 73.6978 136.387 73.538 135.938 73.2387C135.488 72.9393 135.138 72.5139 134.932 72.0161C134.725 71.5183 134.671 70.9705 134.776 70.442C134.882 69.9136 135.142 69.4282 135.524 69.0472C135.906 68.6662 136.392 68.4067 136.922 68.3016C137.452 68.1965 138.001 68.2504 138.5 68.4566C138.999 68.6628 139.425 69.012 139.725 69.46C140.025 69.908 140.186 70.4347 140.186 70.9735C140.186 71.3313 140.115 71.6855 139.978 72.0161C139.84 72.3466 139.639 72.6469 139.386 72.8999C139.132 73.1529 138.831 73.3535 138.5 73.4904C138.168 73.6274 137.813 73.6978 137.455 73.6978Z" fill="#3F3D56"/>
<path d="M102.529 43.1571C104.831 43.1571 106.697 41.2954 106.697 38.999C106.697 36.7025 104.831 34.8408 102.529 34.8408C100.227 34.8408 98.3608 36.7025 98.3608 38.999C98.3608 41.2954 100.227 43.1571 102.529 43.1571Z" fill="white"/>
<path d="M102.529 32.9768C100.966 32.9768 99.4671 33.5962 98.362 34.6986C97.2569 35.8011 96.636 37.2964 96.636 38.8555C96.636 42.1023 102.529 52.7638 102.529 52.7638C102.529 52.7638 108.422 42.1023 108.422 38.8555C108.422 37.2964 107.801 35.8011 106.696 34.6986C105.591 33.5962 104.092 32.9768 102.529 32.9768ZM102.529 41.7232C101.989 41.7232 101.461 41.5634 101.012 41.2641C100.563 40.9647 100.213 40.5393 100.006 40.0415C99.7992 39.5437 99.7452 38.9959 99.8505 38.4674C99.9559 37.939 100.216 37.4536 100.598 37.0726C100.98 36.6916 101.466 36.4321 101.996 36.327C102.526 36.2219 103.075 36.2758 103.574 36.482C104.073 36.6882 104.499 37.0374 104.799 37.4854C105.1 37.9334 105.26 38.4601 105.26 38.9989C105.26 39.3567 105.189 39.7109 105.052 40.0415C104.915 40.372 104.713 40.6723 104.46 40.9253C104.206 41.1783 103.905 41.3789 103.574 41.5158C103.243 41.6528 102.887 41.7232 102.529 41.7232Z" fill="#3F3D56"/>
<path d="M143.779 31.5431C146.081 31.5431 147.947 29.6814 147.947 27.3849C147.947 25.0885 146.081 23.2268 143.779 23.2268C141.477 23.2268 139.611 25.0885 139.611 27.3849C139.611 29.6814 141.477 31.5431 143.779 31.5431Z" fill="white"/>
<path d="M143.779 21.3628C142.216 21.3628 140.717 21.9822 139.612 23.0846C138.507 24.1871 137.886 25.6824 137.886 27.2415C137.886 30.4883 143.779 41.1498 143.779 41.1498C143.779 41.1498 149.672 30.4883 149.672 27.2415C149.672 25.6824 149.051 24.1871 147.946 23.0846C146.84 21.9822 145.342 21.3628 143.779 21.3628ZM143.779 30.1092C143.239 30.1092 142.711 29.9494 142.262 29.6501C141.812 29.3507 141.462 28.9253 141.256 28.4275C141.049 27.9297 140.995 27.3819 141.1 26.8534C141.206 26.325 141.466 25.8395 141.848 25.4585C142.23 25.0775 142.716 24.8181 143.246 24.713C143.776 24.6078 144.325 24.6618 144.824 24.868C145.323 25.0742 145.749 25.4234 146.049 25.8714C146.349 26.3194 146.51 26.8461 146.51 27.3849C146.51 28.1074 146.222 28.8004 145.71 29.3113C145.198 29.8222 144.503 30.1092 143.779 30.1092V30.1092Z" fill="#3F3D56"/>
<path d="M51.4317 154.776L54.7492 154.4L54.8758 141.457L49.9797 142.011L51.4317 154.776Z" fill="#FFB8B8"/>
<path d="M61.4963 156.749L51.0704 157.93L50.6133 153.911L57.011 153.187C58.0794 153.066 59.1521 153.373 59.9933 154.041C60.8344 154.709 61.3751 155.683 61.4963 156.749Z" fill="#2F2E41"/>
<path d="M17.3149 154.569L20.6536 154.569L22.2418 141.722L17.3144 141.722L17.3149 154.569Z" fill="#FFB8B8"/>
<path d="M27.0926 157.662L16.5997 157.662L16.5995 153.618L23.0383 153.617C24.1135 153.617 25.1447 154.043 25.905 154.802C26.6653 155.56 27.0925 156.589 27.0926 157.662Z" fill="#2F2E41"/>
<path d="M41.269 97.1193L43.1753 103.305L53.5236 125.645L56.2469 146.835L49.9834 147.107L46.1709 127.547L33.0993 113.42L21.6617 150.367L16.4875 149.824C16.4875 149.824 20.8447 102.009 26.8358 97.1193C26.8358 97.1193 36.6395 92.5009 41.269 97.1193Z" fill="#2F2E41"/>
<path d="M32.813 70.4284C36.507 70.4284 39.5016 67.441 39.5016 63.7558C39.5016 60.0707 36.507 57.0833 32.813 57.0833C29.119 57.0833 26.1245 60.0707 26.1245 63.7558C26.1245 67.441 29.119 70.4284 32.813 70.4284Z" fill="#FFB8B8"/>
<path d="M41.9498 98.3417C41.9498 98.3417 42.7668 70.6311 31.3292 72.5328C19.8915 74.4345 24.6572 101.194 24.6572 101.194C24.6572 101.194 27.1081 106.084 33.0993 100.651C39.0904 95.2175 41.9498 98.3417 41.9498 98.3417Z" fill="#CCCCCC"/>
<path opacity="0.2" d="M26.1551 84.2148L28.8465 94.5066L32.9469 98.5975L27.2444 96.7118L26.1551 84.2148Z" fill="black"/>
<path d="M42.0343 110.061C41.658 109.925 41.3161 109.708 41.0328 109.426C40.7495 109.144 40.5317 108.803 40.3947 108.428C40.2577 108.053 40.2048 107.652 40.2398 107.254C40.2748 106.856 40.3968 106.471 40.5973 106.125L34.2361 98.7784L39.2508 98.1272L44.5227 105.204C45.0825 105.578 45.4853 106.145 45.6546 106.795C45.8239 107.446 45.748 108.136 45.4413 108.735C45.1345 109.334 44.6183 109.8 43.9904 110.044C43.3625 110.288 42.6665 110.295 42.0343 110.061Z" fill="#FFB8B8"/>
<path d="M34.2893 78.177L35.0056 92.2291L43.4476 103.096L39.9074 105.813L28.4698 94.4024C28.4698 94.4024 24.3849 80.5471 27.3805 76.472C28.5038 74.9439 29.742 74.5236 30.851 74.5952C31.7635 74.671 32.6166 75.077 33.2499 75.7367C33.8832 76.3964 34.2529 77.2643 34.2893 78.177Z" fill="#CCCCCC"/>
<path d="M32.0175 70.767C32.0495 70.7384 32.0743 70.7028 32.0901 70.663C32.1058 70.6232 32.112 70.5803 32.1083 70.5377C32.1045 70.495 32.0908 70.4539 32.0683 70.4174C32.0457 70.381 32.015 70.3503 31.9785 70.3278C31.3846 69.9608 30.9007 69.4411 30.5776 68.8231C30.2546 68.2051 30.1043 67.5118 30.1427 66.8159C30.181 66.12 30.4065 65.4472 30.7955 64.8683C31.1845 64.2893 31.7226 63.8256 32.3533 63.5258C34.3198 62.5905 36.9845 63.3181 38.4382 61.5207C38.7338 61.1362 38.9428 60.6926 39.051 60.2201C39.1593 59.7477 39.1641 59.2575 39.0652 58.783C38.7515 57.0854 37.4723 55.8247 36.0396 54.9607C34.2797 53.8994 32.257 53.351 30.2007 53.3776C28.1443 53.4043 26.1366 54.005 24.405 55.1117C22.6733 56.2184 21.287 57.7867 20.403 59.6391C19.5191 61.4915 19.1728 63.5539 19.4036 65.5925C19.5885 67.2264 20.0939 69.0584 19.12 70.385C18.2629 71.5525 16.6451 71.7714 15.2239 72.0615C12.1758 72.6837 9.23506 74.1191 7.16652 76.4376C5.09797 78.7562 3.99447 82.0092 4.61814 85.05C5.24181 88.0909 7.7439 90.7634 10.8191 91.2347C13.3222 91.6184 15.9069 90.5579 17.745 88.82C19.5832 87.0821 20.7451 84.7353 21.4779 82.317C22.3478 79.4467 22.6909 76.3537 24.2613 73.7968C25.7981 71.2948 29.1098 69.5012 31.7053 70.8043C31.755 70.8302 31.8115 70.8405 31.8672 70.8339C31.9229 70.8272 31.9753 70.8039 32.0175 70.767Z" fill="#2F2E41"/>
<path d="M83.876 158H0.272325C0.2001 158 0.130833 157.971 0.0797618 157.92C0.028691 157.869 0 157.8 0 157.728C0 157.656 0.028691 157.587 0.0797618 157.536C0.130833 157.485 0.2001 157.457 0.272325 157.457H83.876C83.9482 157.457 84.0174 157.485 84.0685 157.536C84.1196 157.587 84.1483 157.656 84.1483 157.728C84.1483 157.8 84.1196 157.869 84.0685 157.92C84.0174 157.971 83.9482 158 83.876 158Z" fill="#3F3D56"/>
</svg>
